<?xml version="1.0" standalone="no"?>
<!DOCTYPE svg PUBLIC "-//W3C//DTD SVG 20010904//EN"
 "http://www.w3.org/TR/2001/REC-SVG-20010904/DTD/svg10.dtd">
<svg version="1.0" xmlns="http://www.w3.org/2000/svg"
 width="225.000000pt" height="225.000000pt" viewBox="0 0 225.000000 225.000000"
 preserveAspectRatio="xMidYMid meet">

<g transform="translate(0.000000,225.000000) scale(0.100000,-0.100000)"
fill="#000000" stroke="none">
<path d="M935 1919 c-38 -3 -86 -13 -105 -22 -57 -27 -136 -103 -160 -152 -12
-25 -44 -65 -72 -88 -71 -61 -84 -88 -92 -186 -5 -71 -3 -88 11 -103 11 -12
16 -35 15 -68 -1 -43 2 -50 19 -50 19 0 24 -14 20 -57 -1 -17 5 -24 24 -29 14
-3 31 -14 38 -23 11 -16 14 -16 44 4 l31 22 -23 68 c-20 57 -23 83 -21 175 1
60 7 115 13 122 5 7 15 50 22 96 15 103 31 141 77 186 47 45 110 66 201 66 82
0 133 -17 176 -58 43 -40 57 -74 73 -175 16 -98 13 -184 -10 -239 -8 -18 -17
-62 -21 -98 -4 -36 -19 -93 -32 -127 -23 -57 -32 -68 -105 -120 -44 -32 -95
-66 -115 -77 -32 -17 -37 -17 -74 -3 -22 9 -46 14 -54 11 -13 -5 -85 101 -85
125 0 11 19 16 55 12 27 -2 72 18 79 36 5 12 10 11 31 -5 34 -27 156 -28 180
-2 15 16 12 18 -47 22 -35 3 -84 15 -109 27 l-46 22 -86 -42 c-74 -35 -86 -44
-82 -63 2 -11 9 -46 15 -76 13 -69 40 -115 84 -141 19 -11 39 -33 46 -49 14
-35 14 -35 44 -15 13 8 51 26 85 40 118 46 221 135 258 222 15 36 15 53 1 193
-2 16 2 24 10 22 8 -1 32 11 55 28 l42 31 3 -26 c2 -18 -8 -40 -34 -71 -31
-39 -35 -49 -26 -67 10 -21 11 -21 12 -2 1 20 1 20 15 1 8 -11 15 -28 15 -37
0 -10 10 -25 22 -34 21 -14 24 -14 34 0 12 16 29 21 20 7 -8 -14 52 -89 77
-96 45 -12 87 -6 108 15 18 18 20 29 15 70 -4 27 -9 55 -12 62 -2 7 9 28 26
45 40 42 42 106 5 150 -15 18 -25 42 -25 60 0 40 -40 87 -101 117 -52 27 -104
89 -155 184 -40 75 -114 138 -179 151 -67 13 -145 16 -230 9z"/>
<path d="M1281 1164 c0 -11 3 -14 6 -6 3 7 2 16 -1 19 -3 4 -6 -2 -5 -13z"/>
<path d="M1452 988 c-6 -24 -25 -65 -42 -93 -39 -61 -219 -245 -240 -245 -20
0 -172 73 -211 101 -32 23 -57 19 -84 -11 -18 -20 -18 -20 -41 1 -21 20 -26
20 -116 9 -51 -6 -103 -13 -115 -16 -21 -6 -21 -5 -8 43 7 26 18 61 24 77 15
38 10 41 -31 20 -97 -50 -199 -143 -269 -245 -43 -64 -123 -224 -134 -271 l-7
-28 916 -2 c504 -1 931 -2 949 -2 30 -1 32 1 29 29 -6 56 -63 210 -102 275
-48 82 -125 155 -215 205 -74 40 -209 129 -261 171 l-31 25 -11 -43z"/>
</g>
</svg>
